<?xml version="1.0" standalone="no"?>
<!DOCTYPE svg PUBLIC "-//W3C//DTD SVG 20010904//EN"
 "http://www.w3.org/TR/2001/REC-SVG-20010904/DTD/svg10.dtd">
<svg version="1.0" xmlns="http://www.w3.org/2000/svg"
 width="500.000000pt" height="500.000000pt" viewBox="0 0 500.000000 500.000000"
 preserveAspectRatio="xMidYMid meet">

<g transform="translate(0.000000,500.000000) scale(0.100000,-0.100000)"
fill="#000000" stroke="none">
<path d="M1533 3387 c-513 -331 -932 -605 -933 -608 -1 -16 86 -39 146 -39 81
0 100 8 259 112 72 47 272 176 445 288 173 111 470 303 660 426 190 122 357
225 371 229 31 8 74 -12 198 -93 47 -30 185 -119 306 -197 121 -78 427 -276
680 -440 252 -164 474 -304 492 -311 44 -19 154 -18 203 2 22 9 40 19 40 23
-1 3 -421 277 -934 609 -772 498 -939 602 -967 602 -28 -1 -211 -115 -966
-603z"/>
<path d="M2325 3311 c-120 -30 -218 -136 -232 -252 l-6 -49 157 0 156 0 0 155
c0 173 4 165 -75 146z"/>
<path d="M2560 3166 l0 -156 155 0 155 0 0 28 c0 121 -129 257 -263 277 l-47
7 0 -156z"/>
<path d="M2080 2705 l0 -155 160 0 160 0 0 155 0 155 -160 0 -160 0 0 -155z"/>
<path d="M2560 2705 l0 -155 155 0 155 0 0 155 0 155 -155 0 -155 0 0 -155z"/>
<path d="M1251 2220 l-51 -79 -43 22 c-31 16 -64 23 -124 25 -138 6 -220 -35
-278 -139 -28 -50 -30 -62 -30 -154 0 -89 3 -106 27 -151 14 -27 44 -66 66
-86 l40 -36 -39 -61 c-21 -33 -34 -63 -30 -66 5 -3 26 22 47 55 27 41 44 58
54 54 119 -44 263 -19 337 59 108 112 116 319 18 435 l-27 32 51 78 c28 43 51
81 51 85 0 23 -24 -3 -69 -73z m-118 -80 c20 -14 37 -29 37 -34 0 -5 -66 -110
-147 -234 l-146 -223 -23 28 c-50 61 -76 196 -55 293 19 88 48 139 100 172 42
27 52 29 122 26 61 -2 83 -8 112 -28z m84 -107 c28 -74 25 -242 -6 -305 -53
-109 -164 -154 -271 -112 -31 12 -40 21 -35 33 11 27 278 431 286 431 4 0 16
-21 26 -47z"/>
<path d="M78 2176 c17 -8 37 -27 42 -41 13 -34 13 -466 0 -499 -6 -16 -21 -29
-42 -35 -25 -8 4 -10 117 -8 138 2 154 4 199 27 68 34 91 68 91 135 0 79 -52
137 -138 154 l-30 7 49 25 c64 32 92 83 75 138 -23 80 -77 102 -261 107 -126
4 -133 4 -102 -10z m234 -32 c39 -20 58 -53 58 -99 0 -69 -41 -106 -133 -120
l-47 -7 0 127 0 127 47 -7 c26 -4 60 -13 75 -21z m25 -264 c50 -22 75 -64 75
-128 0 -76 -56 -127 -149 -138 -46 -6 -50 -5 -61 20 -7 17 -12 75 -12 152 l0
126 53 -7 c28 -4 71 -15 94 -25z"/>
<path d="M1717 2176 c-78 -29 -141 -96 -167 -180 -19 -59 -9 -201 18 -253 55
-105 142 -157 267 -158 68 0 89 4 137 28 111 54 163 154 156 297 -6 124 -53
201 -152 252 -52 28 -201 36 -259 14z m206 -20 c43 -18 81 -61 109 -121 33
-73 33 -227 -1 -303 -43 -95 -123 -140 -226 -128 -70 8 -123 48 -160 121 -28
54 -30 66 -30 164 0 89 4 114 23 158 41 88 93 123 190 123 34 0 77 -6 95 -14z"/>
<path d="M2397 2178 c22 -7 35 -20 42 -41 14 -38 15 -466 1 -501 -6 -16 -21
-29 -42 -35 -24 -7 24 -9 170 -10 l202 -1 -1 63 c-1 34 -4 52 -6 41 -9 -48
-82 -83 -176 -84 -53 0 -58 2 -67 26 -11 28 -12 455 -1 494 4 15 21 32 41 42
l35 17 -115 -1 c-93 0 -109 -2 -83 -10z"/>
<path d="M3029 2176 c19 -7 38 -21 42 -32 4 -10 8 -127 8 -260 1 -261 0 -267
-54 -283 -44 -13 218 -13 275 0 97 22 146 83 138 171 -4 33 -13 57 -29 74 -29
32 -90 64 -121 64 -18 1 -13 6 22 24 25 13 53 33 63 44 27 29 32 83 12 125
-29 61 -116 88 -289 86 -92 0 -98 -2 -67 -13z m190 -17 c72 -15 101 -46 101
-106 0 -77 -38 -114 -133 -128 l-47 -7 0 126 c0 141 -5 133 79 115z m70 -278
c73 -34 98 -110 62 -184 -24 -50 -67 -77 -136 -85 -62 -6 -69 9 -74 150 -2 65
0 125 3 133 4 13 16 14 58 9 29 -3 68 -14 87 -23z"/>
<path d="M3946 2180 c-66 -20 -106 -85 -106 -172 l-1 -53 -51 -30 c-77 -45
-111 -93 -115 -163 -5 -68 16 -115 66 -149 68 -46 193 -39 269 17 l39 28 49
-31 c42 -28 57 -32 129 -34 l80 -3 -51 18 c-48 17 -117 54 -158 85 -18 13 -18
16 -2 63 9 27 19 72 23 101 l6 52 53 11 c65 14 105 42 86 62 -10 10 -22 7 -65
-17 -43 -24 -62 -29 -112 -28 -33 0 -73 6 -89 12 -16 6 -31 9 -34 7 -6 -6 41
-26 83 -35 26 -6 30 -12 33 -44 2 -21 -4 -63 -13 -95 l-17 -57 -39 45 c-57 66
-101 161 -107 235 -9 117 56 202 111 146 46 -46 18 -155 -43 -168 -17 -3 -30
-9 -30 -14 0 -11 -3 -12 59 7 39 11 57 23 71 47 55 89 -23 187 -124 157z m-87
-277 c18 -52 73 -135 122 -184 40 -40 40 -41 22 -61 -27 -30 -76 -48 -133 -48
-43 0 -55 5 -87 34 -33 30 -37 39 -41 93 -2 34 1 77 7 96 10 31 75 107 91 107
3 0 12 -17 19 -37z"/>
<path d="M4550 2173 c47 -25 52 -53 48 -314 -3 -195 -5 -219 -22 -237 -10 -12
-30 -23 -45 -26 -14 -2 44 -3 129 -2 123 2 164 6 198 20 86 37 120 117 84 199
-22 50 -50 73 -114 92 l-43 12 38 16 c61 26 87 62 87 119 0 41 -5 54 -28 78
-40 40 -89 52 -237 57 l-130 4 35 -18z m232 -29 c56 -29 74 -94 42 -155 -17
-33 -54 -53 -121 -64 l-43 -7 0 127 0 126 48 -7 c26 -3 59 -13 74 -20z m26
-266 c50 -24 72 -60 72 -120 0 -81 -51 -132 -146 -145 -69 -9 -74 2 -74 165
l0 134 53 -7 c28 -4 71 -16 95 -27z"/>
<path d="M730 1010 c0 -20 7 -20 1770 -20 1763 0 1770 0 1770 20 0 20 -7 20
-1770 20 -1763 0 -1770 0 -1770 -20z"/>
</g>
</svg>
